<svg xmlns="http://www.w3.org/2000/svg" width="39" height="31"><path d="M39 3.669A16.16 16.16 0 0 1 34.4 4.9 7.877 7.877 0 0 0 37.918.572a16.191 16.191 0 0 1-5.08 1.9A8.076 8.076 0 0 0 27 0a7.911 7.911 0 0 0-8 7.825 7.715 7.715 0 0 0 .206 1.784A22.884 22.884 0 0 1 2.718 1.432a7.666 7.666 0 0 0-1.083 3.935 7.783 7.783 0 0 0 3.558 6.514 8.094 8.094 0 0 1-3.622-.979v.1a7.874 7.874 0 0 0 6.416 7.675 8.2 8.2 0 0 1-3.611.134 7.99 7.99 0 0 0 7.471 5.435 16.269 16.269 0 0 1-9.933 3.351 16.448 16.448 0 0 1-1.908-.109A23.022 23.022 0 0 0 12.267 31 22.347 22.347 0 0 0 35.026 8.734c0-.339-.01-.678-.024-1.014A16.062 16.062 0 0 0 39 3.669z" fill="#fff" fill-rule="evenodd"/></svg>