<svg width="24" height="23" xmlns="http://www.w3.org/2000/svg"><path d="M23.162.259v4.239c-1.13.64-1.988 1.431-2.572 2.373a11.823 11.823 0 0 0-1.328 2.996c-.301 1.055-.452 2.222-.452 3.503h4.352v9.269h-9.269v-5.765c0-3.466.33-6.103.99-7.912.659-1.808 1.666-3.475 3.023-5.001 1.356-1.526 3.108-2.76 5.256-3.702zm-13.62 0v4.239c-1.13.64-1.997 1.431-2.6 2.373a11.28 11.28 0 0 0-1.356 2.996c-.302 1.055-.453 2.222-.453 3.503h4.409v9.269H.273v-5.765c0-3.466.33-6.103.99-7.912.659-1.808 1.666-3.475 3.023-5.001C5.642 2.435 7.394 1.2 9.542.259z" fill="#FA3377"/></svg>