<svg width="206" height="31" xmlns="http://www.w3.org/2000/svg"><g fill="none"><path d="M19.36 23l-1.47-3H7.06l-1.44 3H.82L12.61.26 24.43 23h-5.07zM12.43 8.84L9.07 15.8h6.78l-3.42-6.96zm17.58 21.39h-4.26V7.85h4.26V8.9c.66-.72 2.31-1.38 3.69-1.38 4.17 0 7.44 3.54 7.44 7.86 0 4.38-3.39 7.95-7.53 7.95-1.26 0-2.79-.45-3.6-1.41v8.31zm3.27-18.45c-1.98 0-3.45 1.5-3.45 3.63 0 2.16 1.47 3.69 3.45 3.69 1.95 0 3.54-1.53 3.54-3.69 0-2.13-1.59-3.63-3.54-3.63zm14.49 18.45h-4.26V7.85h4.26V8.9c.66-.72 2.31-1.38 3.69-1.38 4.17 0 7.44 3.54 7.44 7.86 0 4.38-3.39 7.95-7.53 7.95-1.26 0-2.79-.45-3.6-1.41v8.31zm3.27-18.45c-1.98 0-3.45 1.5-3.45 3.63 0 2.16 1.47 3.69 3.45 3.69 1.95 0 3.54-1.53 3.54-3.69 0-2.13-1.59-3.63-3.54-3.63zM72.88 23H59.59l6.75-11.22h-5.85V7.85h12.48l-6.3 11.1h6.21V23zm9.27-15.48c4.35 0 7.98 3.54 7.98 7.92 0 4.32-3.63 7.89-7.98 7.89-4.35 0-7.86-3.57-7.86-7.89 0-4.38 3.51-7.92 7.86-7.92zm0 11.58c2.07 0 3.63-1.5 3.63-3.66 0-2.13-1.56-3.66-3.63-3.66-1.95 0-3.54 1.53-3.54 3.66 0 2.16 1.59 3.66 3.54 3.66zm19.02-11.52v4.41a3.98 3.98 0 0 0-1.35-.21c-1.65 0-3.06 1.23-3.06 3.66V23H92.5V7.85h4.26V8.9c.93-.99 2.19-1.38 3.36-1.38.36 0 .66 0 1.05.06zm7.35 10.08l-1.2 1.14V23h-4.26V.65h4.26v13.23l6.45-6.03h5.28l-7.62 7.08 7.95 8.07h-5.43l-5.43-5.34zm21.09-9.81h4.26V23h-4.26v-1.08c-.66.87-2.31 1.41-3.69 1.41-4.14 0-7.44-3.57-7.44-7.89 0-4.38 3.39-7.92 7.44-7.92 1.35 0 3.03.66 3.69 1.38V7.85zm-3.27 11.25c1.98 0 3.45-1.5 3.45-3.66 0-2.13-1.47-3.66-3.45-3.66-1.95 0-3.54 1.53-3.54 3.66 0 2.16 1.59 3.66 3.54 3.66z" fill="#FFF"/><path d="M139.48 18.8c1.38 0 2.31 1.02 2.31 2.31 0 1.23-.9 2.28-2.31 2.28-1.38 0-2.31-1.05-2.31-2.28 0-1.29.93-2.31 2.31-2.31zm16.44-2.76h4.38c-.3 4.05-3.81 7.29-7.98 7.29-4.35 0-7.86-3.57-7.86-7.89 0-4.38 3.51-7.92 7.86-7.92 2.49 0 4.74 1.17 6.21 2.97l-3.39 2.64c-.78-.99-1.77-1.35-2.82-1.35-1.95 0-3.54 1.53-3.54 3.66 0 2.16 1.59 3.66 3.54 3.66 1.86 0 3.33-1.23 3.6-3.06zm13.95-8.52c4.35 0 7.98 3.54 7.98 7.92 0 4.32-3.63 7.89-7.98 7.89-4.35 0-7.86-3.57-7.86-7.89 0-4.38 3.51-7.92 7.86-7.92zm0 11.58c2.07 0 3.63-1.5 3.63-3.66 0-2.13-1.56-3.66-3.63-3.66-1.95 0-3.54 1.53-3.54 3.66 0 2.16 1.59 3.66 3.54 3.66zm25.14-3.66V23h-4.26v-7.56c0-2.61-1.35-3.66-3.27-3.66-1.59 0-3 1.65-3 3.66V23h-4.26V7.85h4.26V8.9c.69-.84 2.4-1.38 3.72-1.38 2.22 0 4.23 1.02 5.13 2.4 1.44-1.92 3.84-2.4 5.4-2.4 4.65 0 6.9 3.54 6.9 7.92V23h-4.23v-7.56c0-2.31-1.41-3.66-3.12-3.66-1.86 0-3.27 1.65-3.27 3.66z" fill="#FFEF80"/></g></svg>